<svg width="2000" height="512" viewBox="0 0 2000 512" fill="none" xmlns="http://www.w3.org/2000/svg">
<path fill-rule="evenodd" clip-rule="evenodd" d="M155.797 356.692L97.6834 255.623L159.264 149.37L282.057 149.604L343.262 256.186L281.681 362.44L203.603 362.336L192.502 342.183L270.061 342.282L320.008 256.1L270.411 169.727L170.871 169.528L120.919 255.71L178.895 356.523L182.184 362.245L194.925 384.403H198.716L198.691 384.442L293.998 384.728L368.255 256.611L350.234 223.633H373.444L391.508 256.68L306.605 403.175L306.44 403.465L305.718 404.912L302.273 404.881L183.539 404.543L181.725 401.802L158.273 361.015L155.789 356.692H155.797ZM320.393 447.18L109.866 446.751L0 255.433L110.598 64.6127L331.074 65.0588L440.945 256.377L330.347 447.197L320.393 447.18ZM121.508 426.641L318.731 427.04L417.696 256.295L319.428 85.1643L122.209 84.7658L23.2448 255.511L121.508 426.641ZM169.768 256L195.215 299.901L245.92 299.797L271.182 255.805L245.738 211.904L191.84 212.012L180.237 191.898L257.333 191.747L294.422 255.719L257.558 319.929L183.621 320.059L146.532 256.087L150.457 248.693H173.637L169.776 256H169.768ZM109.987 362.193L108.07 358.888L48.8352 255.532L134.929 106.989L309.491 107.34L297.889 127.454L146.536 127.151L72.0843 255.606L121.335 341.568L121.69 342.087L124.711 342.092L128.818 342.1L139.849 362.249L109.983 362.202L109.987 362.193Z" fill="#3CCD2F"/>
<path d="M659.498 375.321C643.717 375.321 629.232 372.511 616.042 366.889C602.855 361.266 591.395 353.215 581.666 342.728C571.937 332.241 564.425 319.865 559.127 305.596C553.832 291.326 551.181 275.654 551.181 258.572C551.181 242.357 554.043 227.28 559.775 213.335C565.503 199.391 573.449 187.12 583.611 176.527C593.77 165.935 605.555 157.718 618.96 151.88C632.366 146.043 646.85 143.124 662.417 143.124C673.443 143.124 684.198 144.798 694.685 148.151C705.172 151.503 714.682 156.149 723.223 162.096C731.765 168.039 738.737 174.796 744.141 182.365L720.791 206.687C714.52 200.416 708.2 195.175 701.82 190.959C695.443 186.743 688.957 183.556 682.361 181.392C675.766 179.231 669.122 178.149 662.417 178.149C651.824 178.149 641.933 180.147 632.747 184.148C623.557 188.149 615.559 193.715 608.749 200.85C601.938 207.984 596.587 216.473 592.696 226.308C588.804 236.146 586.858 246.901 586.858 258.576C586.858 270.899 588.751 282.088 592.533 292.141C596.316 302.194 601.667 310.788 608.586 317.923C615.506 325.058 623.776 330.514 633.396 334.3C643.015 338.082 653.664 339.975 665.336 339.975C672.47 339.975 679.495 339.003 686.415 337.057C693.335 335.111 699.821 332.302 705.873 328.625C711.929 324.948 717.439 320.627 722.413 315.653L739.925 344.191C734.951 350.029 728.197 355.323 719.656 360.082C711.115 364.837 701.605 368.567 691.118 371.271C680.631 373.974 670.091 375.324 659.498 375.324V375.321Z" fill="#3CCD2F"/>
<path d="M767.859 372.076V201.825H801.587V255.331L798.344 242.359C800.723 234.142 804.777 226.683 810.505 219.982C816.233 213.281 822.828 207.983 830.287 204.091C837.746 200.2 845.473 198.254 853.471 198.254C857.148 198.254 860.659 198.578 864.011 199.227C867.363 199.875 870.011 200.633 871.956 201.497L863.2 237.819C860.606 236.736 857.744 235.82 854.606 235.062C851.473 234.304 848.392 233.927 845.364 233.927C839.526 233.927 833.96 235.062 828.662 237.332C823.368 239.602 818.718 242.736 814.717 246.737C810.716 250.738 807.53 255.384 805.15 260.682C802.771 265.98 801.583 271.761 801.583 278.032V372.076H767.855H767.859Z" fill="#3CCD2F"/>
<path d="M959.565 375.32C942.052 375.32 926.542 371.591 913.027 364.132C899.516 356.673 888.92 346.457 881.246 333.485C873.572 320.513 869.733 305.595 869.733 288.735C869.733 275.33 871.897 263.116 876.219 252.089C880.54 241.063 886.54 231.496 894.218 223.388C901.892 215.281 911.081 209.014 921.783 204.579C932.485 200.148 944.104 197.931 956.642 197.931C967.668 197.931 977.937 200.039 987.451 204.255C996.965 208.471 1005.23 214.255 1012.26 221.605C1019.29 228.954 1024.69 237.658 1028.48 247.711C1032.26 257.765 1034.04 268.738 1033.83 280.628L1033.5 294.897H894.38L886.921 268.304H1004.64L999.774 273.817V266.034C999.126 258.9 996.746 252.523 992.64 246.9C988.533 241.278 983.344 236.847 977.073 233.604C970.802 230.361 963.992 228.739 956.642 228.739C944.967 228.739 935.133 230.953 927.131 235.388C919.132 239.822 913.08 246.305 908.97 254.846C904.863 263.387 902.808 273.927 902.808 286.465C902.808 298.355 905.293 308.68 910.267 317.436C915.241 326.192 922.266 332.946 931.346 337.705C940.427 342.46 950.91 344.84 962.804 344.84C971.236 344.84 979.072 343.433 986.316 340.624C993.556 337.814 1001.4 332.731 1009.83 325.382L1026.69 349.056C1021.5 354.244 1015.18 358.785 1007.72 362.676C1000.26 366.568 992.368 369.649 984.046 371.919C975.723 374.189 967.559 375.324 959.561 375.324L959.565 375.32Z" fill="#3CCD2F"/>
<path d="M1129.86 375.32C1114.3 375.32 1100.41 371.485 1088.19 363.807C1075.98 356.134 1066.3 345.647 1059.17 332.35C1052.03 319.054 1048.47 303.864 1048.47 286.786C1048.47 269.707 1051.98 254.518 1059.01 241.221C1066.03 227.925 1075.6 217.442 1087.71 209.764C1099.82 202.09 1113.54 198.251 1128.89 198.251C1137.33 198.251 1145.49 199.601 1153.38 202.305C1161.27 205.009 1168.35 208.682 1174.62 213.331C1180.89 217.981 1185.81 223.06 1189.38 228.573C1192.94 234.087 1194.73 239.656 1194.73 245.275L1185 245.924V132.097H1218.4V372.073H1185V331.536H1191.48C1191.48 336.724 1189.75 341.857 1186.3 346.94C1182.84 352.023 1178.24 356.722 1172.51 361.047C1166.78 365.372 1160.19 368.83 1152.73 371.425C1145.27 374.019 1137.65 375.316 1129.87 375.316L1129.86 375.32ZM1134.4 346.457C1144.56 346.457 1153.54 343.863 1161.32 338.674C1169.1 333.485 1175.21 326.403 1179.64 317.432C1184.08 308.461 1186.29 298.246 1186.29 286.786C1186.29 275.326 1184.08 265.114 1179.64 256.139C1175.21 247.168 1169.1 240.086 1161.32 234.897C1153.54 229.709 1144.57 227.114 1134.4 227.114C1124.24 227.114 1115.27 229.709 1107.49 234.897C1099.7 240.086 1093.6 247.168 1089.16 256.139C1084.73 265.114 1082.51 275.326 1082.51 286.786C1082.51 298.246 1084.73 308.461 1089.16 317.432C1093.59 326.403 1099.7 333.485 1107.49 338.674C1115.27 343.863 1124.24 346.457 1134.4 346.457Z" fill="#3CCD2F"/>
<path d="M1258.65 372.077V201.826H1292.05V372.077H1258.65ZM1274.87 164.206C1267.73 164.206 1262.22 162.37 1258.33 158.693C1254.44 155.02 1252.49 149.832 1252.49 143.127C1252.49 136.856 1254.49 131.776 1258.49 127.885C1262.49 123.993 1267.95 122.047 1274.87 122.047C1282 122.047 1287.52 123.884 1291.41 127.56C1295.3 131.233 1297.24 136.422 1297.24 143.127C1297.24 149.398 1295.25 154.477 1291.25 158.369C1287.24 162.261 1281.79 164.206 1274.87 164.206Z" fill="#3CCD2F"/>
<path d="M1353.07 372.078V158.37H1386.47V372.078H1353.07ZM1317.72 234.253V201.823H1426.03V234.253H1317.72Z" fill="#3CCD2F"/>
<path d="M1515.91 375.319C1500.13 375.319 1486.03 371.427 1473.59 363.644C1461.16 355.861 1451.33 345.268 1444.08 331.862C1436.84 318.46 1433.22 303.433 1433.22 286.784C1433.22 270.136 1436.84 255.112 1444.08 241.706C1451.32 228.301 1461.16 217.708 1473.59 209.925C1486.02 202.141 1500.13 198.25 1515.91 198.25C1531.05 198.25 1544.83 201.331 1557.26 207.492C1569.69 213.654 1579.15 222.033 1585.64 232.626L1567.15 255.327C1563.7 250.353 1559.26 245.817 1553.86 241.706C1548.45 237.6 1542.73 234.357 1536.67 231.977C1530.62 229.598 1524.78 228.41 1519.16 228.41C1508.78 228.41 1499.54 230.952 1491.43 236.031C1483.32 241.111 1476.89 248.083 1472.13 256.949C1467.38 265.814 1465 275.758 1465 286.784C1465 297.811 1467.48 307.702 1472.46 316.458C1477.43 325.214 1484.02 332.187 1492.24 337.375C1500.46 342.564 1509.54 345.159 1519.48 345.159C1525.32 345.159 1530.99 344.186 1536.51 342.24C1542.02 340.294 1547.37 337.375 1552.56 333.484C1557.75 329.592 1562.61 324.837 1567.15 319.215L1585.64 341.916C1578.72 351.645 1568.83 359.643 1555.97 365.914C1543.1 372.185 1529.75 375.319 1515.92 375.319H1515.91Z" fill="#3CCD2F"/>
<path d="M1606.45 372.077V132.101H1639.84V372.077H1606.45Z" fill="#3CCD2F"/>
<path d="M1681.4 372.077V201.826H1714.8V372.077H1681.4ZM1697.61 164.206C1690.48 164.206 1684.96 162.37 1681.07 158.693C1677.18 155.02 1675.24 149.832 1675.24 143.127C1675.24 136.856 1677.23 131.776 1681.23 127.885C1685.24 123.993 1690.69 122.047 1697.61 122.047C1704.75 122.047 1710.26 123.884 1714.15 127.56C1718.04 131.233 1719.99 136.422 1719.99 143.127C1719.99 149.398 1717.99 154.477 1713.99 158.369C1709.99 162.261 1704.53 164.206 1697.61 164.206Z" fill="#3CCD2F"/>
<path d="M1878.94 443.418V331.538H1885.43C1885.43 336.727 1883.7 341.859 1880.24 346.942C1876.78 352.026 1872.13 356.724 1866.29 361.049C1860.46 365.375 1853.97 368.833 1846.84 371.427C1839.7 374.022 1832.35 375.319 1824.78 375.319C1809.44 375.319 1795.71 371.484 1783.6 363.806C1771.49 356.132 1761.92 345.645 1754.9 332.349C1747.87 319.052 1744.36 303.863 1744.36 286.784C1744.36 269.706 1747.81 254.516 1754.73 241.22C1761.65 227.923 1771.11 217.44 1783.11 209.763C1795.11 202.089 1808.68 198.25 1823.81 198.25C1832.24 198.25 1840.3 199.653 1847.97 202.466C1855.64 205.275 1862.56 208.952 1868.73 213.492C1874.89 218.032 1879.75 223.059 1883.32 228.572C1886.89 234.085 1888.67 239.655 1888.67 245.274L1878.94 245.922V201.493H1912.34V443.415H1878.94V443.418ZM1828.35 344.51C1838.51 344.51 1847.48 342.025 1855.27 337.051C1863.05 332.077 1869.16 325.271 1873.59 316.62C1878.02 307.973 1880.24 298.026 1880.24 286.784C1880.24 275.543 1878.02 265.543 1873.59 256.786C1869.16 248.03 1863.05 241.167 1855.27 236.193C1847.48 231.219 1838.51 228.734 1828.35 228.734C1818.19 228.734 1809.22 231.276 1801.44 236.355C1793.65 241.435 1787.54 248.355 1783.11 257.111C1778.68 265.867 1776.47 275.754 1776.47 286.781C1776.47 297.807 1778.68 307.698 1783.11 316.454C1787.54 325.21 1793.65 332.073 1801.44 337.047C1809.22 342.021 1818.19 344.506 1828.35 344.506V344.51Z" fill="#3CCD2F"/>
</svg>
