<svg width="1024" height="1024" viewBox="0 0 1024 1024" fill="none" xmlns="http://www.w3.org/2000/svg">
<path fill-rule="evenodd" clip-rule="evenodd" d="M410.98 669.399L319.973 511.124L416.409 344.731L608.704 345.097L704.55 512.006L608.114 678.399L485.843 678.237L468.459 646.677L589.917 646.833L668.135 511.87L590.466 376.61L434.586 376.298L356.361 511.26L447.151 669.134L452.302 678.094L472.254 712.795H478.192L478.151 712.856L627.403 713.303L743.69 512.671L715.469 461.027H751.816L780.105 512.779L647.146 742.191L646.888 742.645L645.756 744.911L640.361 744.863L454.423 744.334L451.583 740.041L414.857 676.168L410.966 669.399H410.98ZM668.738 811.103L339.051 810.432L167 510.826L340.197 212L685.465 212.699L857.523 512.304L684.326 811.13L668.738 811.103ZM357.283 778.94L666.136 779.564L821.115 512.176L667.227 244.184L358.38 243.56L203.401 510.948L357.283 778.94ZM432.857 511.714L472.709 580.464L552.113 580.301L591.672 511.409L551.828 442.66L467.422 442.829L449.252 411.33L569.985 411.093L628.067 511.273L570.337 611.827L454.552 612.031L396.47 511.85L402.617 500.272H438.916L432.871 511.714H432.857ZM339.241 678.013L336.239 672.838L243.476 510.982L378.299 278.362L651.666 278.911L633.496 310.41L396.476 309.936L279.885 511.097L357.011 645.714L357.567 646.527L362.298 646.534L368.73 646.548L386.005 678.101L339.234 678.026L339.241 678.013Z" fill="white"/>
</svg>
